<?xml version="1.0" encoding="UTF-8"?>
<svg width="760px" height="760px" viewBox="0 0 760 760" version="1.1" xmlns="http://www.w3.org/2000/svg" xmlns:xlink="http://www.w3.org/1999/xlink">
    <!-- Generator: Sketch 52.2 (67145) - http://www.bohemiancoding.com/sketch -->
    <title>knightbus-logo</title>
    <desc>Created with Sketch.</desc>
    <defs>
        <polygon id="path-1" points="0 0.131261171 59.6357826 0.131261171 59.6357826 47.9008406 0 47.9008406"></polygon>
        <polygon id="path-3" points="0.0992402134 0.180282621 59.4143827 0.180282621 59.4143827 40.1483248 0.0992402134 40.1483248"></polygon>
    </defs>
    <g id="knightbus-logo" stroke="none" stroke-width="1" fill="none" fill-rule="evenodd">
        <circle id="Oval" stroke="#FFFFFF" stroke-width="20" fill="#20232F" fill-rule="nonzero" cx="380" cy="380" r="370"></circle>
        <g id="Group-4" transform="translate(250.000000, 197.000000)" fill="#FFFFFF" fill-rule="nonzero">
            <path d="M172.45454,60.9907793 C167.560694,68.5039148 162.979167,76.1683611 158.70901,83.9852013 C157.169488,86.8034112 155.132747,89.2474899 152.741828,91.2325845 L217.368607,108.632102 C208.50461,87.9344614 192.500833,71.0215996 172.45454,60.9907793 Z M136.769207,51.2374496 C134.533272,51.0800369 132.275983,51 130,51 C127.645855,51 125.31171,51.0856285 123.00051,51.2539409 L123.00051,64.4784826 L129.848975,68.2196392 L136.769207,64.3996634 L136.769207,51.2374496 Z M87.5193068,61.003871 C67.4852474,71.0363118 51.4915351,87.9434632 42.6313934,108.632102 L107.084402,91.2793686 C104.696719,89.3087567 102.659267,86.8816378 101.113633,84.0815812 C96.1969827,75.1746252 91.6579761,67.4747936 87.5193068,61.003871 Z M203.060331,20.7242277 C240.333221,42.5085881 267.010001,80.4514212 273.482354,124.94441 C280.516134,129.449237 285,137.308933 285,146 L285,249 C285,256.938718 281.237529,264.324088 275,269.000701 L275,309 C275,317.514075 270.666946,325.442835 263.501211,330.040848 L143.501211,407.040848 C135.274402,412.319717 124.725598,412.319717 116.498789,407.040848 L-3.50121104,330.040848 C-10.6669456,325.442835 -15,317.514075 -15,309 L-15,269.000701 C-21.237529,264.324088 -25,256.938718 -25,249 L-25,146 C-25,137.308933 -20.5161338,129.449237 -13.4823536,124.94441 C-7.00974179,80.4496422 19.6689125,42.5055539 56.9441398,20.7216147 C51.8367457,8.64470463 56.9636008,-6.17698493 69.9315346,-11.8828758 C89.7021744,-20.5819573 109.784187,-25 130,-25 C150.215813,-25 170.297826,-20.5819573 190.068465,-11.8828758 C203.114304,-6.14270674 208.129716,8.71196258 203.060331,20.7242277 Z M35,162.467138 L35,239.452263 L130,290.606109 L225,239.452263 L225,162.467138 L130,136.890215 L35,162.467138 Z M43.7447509,300.948756 L130,356.295875 L216.255249,300.948756 L141.852496,341.011777 C134.453087,344.996074 125.546913,344.996074 118.147504,341.011777 L43.7447509,300.948756 Z" id="Combined-Shape"></path>
        </g>
        <g id="Group-3" transform="translate(250.000000, 197.000000)" fill-rule="nonzero">
            <g id="Group">
                <path d="M250,146 L250,309 L130,386 L10,309 L10,146 C10,79.72583 63.72583,26 130,26 C196.27417,26 250,79.72583 250,146 Z" id="Combined-Shape" stroke="#20232F" stroke-width="10" fill="#B5B6BE" stroke-linecap="round" stroke-linejoin="round"></path>
                <path d="M130,26 C160.568359,25.719401 185.662435,34.2242839 205.282227,51.5146484 C224.902018,68.805013 239.807943,94.6334635 250,129 L250,309 L130,386 L130,26 Z" id="Rectangle" fill="#20232F" opacity="0.100000001"></path>
                <polygon id="Rectangle" stroke="#20232F" stroke-width="10" fill="#E6E3E2" stroke-linecap="round" stroke-linejoin="round" points="0 146 130 111 260 146 260 249 130 319 0 249"></polygon>
                <polygon id="Rectangle" fill="#20232F" opacity="0.100000001" transform="translate(65.000000, 215.000000) scale(-1, 1) translate(-65.000000, -215.000000) " points="0 111 130 146 130 249 0 319"></polygon>
                <path d="M130.5,145 L130.5,285" id="Line" stroke="#20232F" stroke-width="10" stroke-linecap="round"></path>
                <path d="M96.5,150 L96.5,270" id="Line-Copy-4" stroke="#20232F" stroke-width="10" stroke-linecap="round"></path>
                <path d="M62.5,155 L62.5,255" id="Line-Copy-5" stroke="#20232F" stroke-width="10" stroke-linecap="round"></path>
                <path d="M28.5,160 L28.5,240" id="Line-Copy-6" stroke="#20232F" stroke-width="10" stroke-linecap="round"></path>
                <path d="M164.5,150 L164.5,270" id="Line-Copy" stroke="#20232F" stroke-width="10" stroke-linecap="round"></path>
                <path d="M198.5,155 L198.5,255" id="Line-Copy-2" stroke="#20232F" stroke-width="10" stroke-linecap="round"></path>
                <path d="M232.5,160 L232.5,240" id="Line-Copy-3" stroke="#20232F" stroke-width="10" stroke-linecap="round"></path>
                <path d="M123.00051,72 C116.407547,60.0562512 110.388332,50.0547308 104.942864,41.9954387 C97.6262681,31.1668768 89.3119801,20.8350639 80,11 C96.6666667,3.66666667 113.333333,-3.41060513e-13 130,-2.7000624e-13 C146.666667,-2.55795385e-13 163.333333,3.66666667 180,11 C172.682853,17.8827104 164.355663,28.2336181 155.01843,42.052723 C148.440114,51.7886315 142.357039,61.7710572 136.769207,72 L123.00051,72 Z" id="Combined-Shape" stroke="#20232F" stroke-width="10" fill="#17C2CF" stroke-linecap="round" stroke-linejoin="round"></path>
                <g id="Group-2" transform="translate(104.000000, 5.000000)" stroke="#20232F" stroke-linecap="round" stroke-width="10">
                    <path d="M0.8203125,0.614257812 L17.8671875,24.53125" id="Path-2"></path>
                    <path d="M34.8203125,0.614257812 L51.8671875,24.53125" id="Path-2-Copy" transform="translate(43.343750, 12.572754) scale(-1, 1) translate(-43.343750, -12.572754) "></path>
                </g>
            </g>
        </g>
        <g id="Group-3" transform="translate(84.000000, 79.000000)">
            <path d="M25,386.485009 C58.2395847,502.761488 166.764722,588 295.514429,588 C425.547028,588 534.950005,501.054352 567,383" id="Path" stroke="#42475B" stroke-width="10" stroke-linecap="round" stroke-dasharray="10,45" fill-rule="nonzero"></path>
            <g id="Group-21">
                <g id="Group-3" transform="translate(31.016822, 295.894877) rotate(1.000000) translate(-31.016822, -295.894877) translate(1.016822, 271.894877)">
                    <mask id="mask-2" fill="white">
                        <use xlink:href="#path-1"></use>
                    </mask>
                    <g id="Clip-2"></g>
                    <path d="M6.42667183,36.3213118 L53.5815636,35.5609982 C56.9502189,35.5064116 59.5815391,37.9526719 59.6349351,41.211493 C59.6891162,44.5568729 57.1394604,47.0850131 53.7708051,47.1395997 L6.6159133,47.8999133 C3.24804327,47.9544999 0.618293509,45.5940186 0.561756638,42.1636396 C0.508360703,38.9048185 3.0588018,36.3751186 6.42667183,36.3213118 M53.4347248,0.131943654 C56.370716,0.0843753153 59.0028214,2.5298558 59.0507207,5.44634083 C59.0782039,7.16114044 58.2411441,8.80497745 56.7075815,10.1166159 L32.0999081,32.0463998 C30.9927277,33.0086839 29.6209234,33.6309713 28.238911,33.652806 C26.9440596,33.6738608 25.6382149,33.0936831 24.4988399,32.0830508 L1.96968179,12.0287072 C0.652843819,10.7630774 0.0293677638,9.57152953 0.000314093731,7.85672992 C-0.0452294972,5.02602387 2.33324528,2.58522223 5.35639744,2.53687408 C6.73762462,2.51425963 7.95552306,3.00943823 9.27079056,4.1900688 L28.1179849,20.9582981 L49.9176603,1.64711221 C51.109646,0.598269334 52.2254639,0.151438875 53.4347248,0.131943654" id="Fill-1" fill="#FFFFFF" mask="url(#mask-2)"></path>
                </g>
                <path d="M39.9167677,158.523709 L83.3740562,177.126159 C86.3929392,178.418387 87.8178457,181.650129 86.5187588,184.651255 C85.3895282,187.257599 83.3323785,187.875179 80.9685436,188.548263 L40.8808601,198.912664 L68.6869821,210.816325 C71.7852887,212.142168 73.1763811,215.452866 71.8772942,218.453992 C70.5420342,221.534075 67.1669246,222.804414 64.068618,221.477789 L20.6113295,202.875339 C17.5924465,201.583112 16.201354,198.272414 17.4674133,195.350244 C18.6304578,192.664943 20.6530072,192.126319 23.3227409,191.396949 L63.1383396,181.009878 L35.2984036,169.185956 C32.200097,167.858549 30.8090046,164.548633 32.1426919,161.46855 C33.4433515,158.467423 36.8184611,157.197085 39.9167677,158.523709" id="Fill-4" fill="#FFFFFF"></path>
                <path d="M117.01311,131.276592 L82.9385938,99.073821 C80.5042517,96.7734567 80.2995599,93.2739828 82.6829252,90.8019842 C85.0051182,88.3913391 88.5452665,88.430947 90.9796087,90.7313113 L125.05334,122.934082 C127.486898,125.23367 127.69159,128.73392 125.368613,131.143789 C122.986816,133.615787 119.447452,133.576956 117.01311,131.276592" id="Fill-6" fill="#FFFFFF"></path>
                <path d="M155.970487,68.4935556 C148.724096,53.5887006 155.15518,36.3640662 170.695652,28.9755144 C177.723841,25.6337235 186.104573,25.0713055 192.46161,27.4682031 C195.740171,28.4761932 197.466102,29.6524413 198.329462,31.428498 C199.568572,33.9765162 198.433443,37.1788712 195.777982,38.4415852 C194.137914,39.2213364 192.588435,39.1979672 190.200017,38.2413893 C184.883581,36.2051558 180.231207,36.3258965 175.233017,38.7025409 C165.472169,43.3436575 161.981707,53.3705883 166.825501,63.3320854 C171.744918,73.448598 182.152497,77.0567975 192.30485,72.2295065 C198.005702,69.518683 201.837254,64.9398842 202.926694,59.6678 L200.786413,55.2666068 L190.946004,59.9443351 C188.135359,61.2810515 185.088393,60.3532956 183.849283,57.8044984 C182.572361,55.1793619 183.74215,52.2465314 186.552795,50.909815 L201.546579,43.779882 C204.670743,42.2943819 208.024139,43.4573875 209.526353,46.5460124 L212.718263,53.1104116 C213.844727,55.427854 214.202359,57.3487996 213.894354,59.6818215 C212.513452,68.705436 205.516773,77.4517364 196.379813,81.7968436 C180.83934,89.1853954 163.217666,83.3976316 155.970487,68.4935556" id="Fill-8" fill="#FFFFFF"></path>
                <path d="M273.058384,52.9739333 L273.000004,6.08518481 C272.996195,2.63779707 275.431224,0.0487506789 278.914266,0.0442404849 C282.310224,0.0404505624 284.752571,2.62363362 284.75638,6.07102136 L284.777353,22.8784645 L310.206213,22.8476103 L310.185303,5.95396013 C310.180702,2.50658606 312.61646,0.00373301442 316.099516,6.27195478e-06 C319.49546,-0.00456710209 321.936286,2.49243628 321.941693,5.94058013 L321.999996,52.9147522 C322.003805,56.3621399 319.481678,58.9511231 316.172833,58.9557597 C312.776084,58.9595633 310.248221,56.3762897 310.24362,52.9289156 L310.219127,33.3637271 L284.790253,33.3937979 L284.81476,52.9597698 C284.818583,56.407941 282.296442,58.9961408 278.987583,58.9999939 C275.590848,59.0045809 273.062985,56.4213074 273.058384,52.9739333 Z" id="Fill-10" fill="#FFFFFF"></path>
                <path d="M387.531771,70.7205407 L404.121026,32.5346869 L391.567851,27.158169 C388.768405,25.9602431 387.541272,22.8915405 388.712986,20.193063 C389.921118,17.4144093 392.976283,16.2746504 395.774938,17.4733624 L431.676891,32.8483171 C434.5563,34.0816149 435.737514,37.0355556 434.530965,39.8142092 C433.357668,42.5126867 430.267668,43.7318357 427.469013,42.5339098 L414.915046,37.1573919 L398.326583,75.3432457 C396.981487,78.4394597 393.62706,79.8283935 390.50935,78.4929105 C387.470811,77.1912272 386.186675,73.8167548 387.531771,70.7205407" id="Fill-12" fill="#FFFFFF"></path>
                <path d="M493.802272,89.6941714 L484.555187,98.8034111 L490.130234,104.5352 C493.306851,107.802107 497.061459,108.085914 499.939732,105.250987 C502.817226,102.415277 502.553157,98.6920838 499.376541,95.42596 L493.802272,89.6941714 Z M487.480977,125.730508 C490.665383,122.59296 490.465968,118.565577 486.92947,114.929407 L477.757945,105.499514 L467.59324,115.515052 L476.763986,124.944161 C480.300484,128.581115 484.235812,128.927641 487.480977,125.730508 Z M495.207524,134.290951 C488.226446,141.168157 477.932433,140.446881 470.259634,132.558322 L456.773425,118.691016 C454.375773,116.226135 454.413164,112.688749 456.862227,110.276396 L488.828585,78.784879 C491.278428,76.3717419 494.792336,76.4093737 497.189988,78.8742544 L507.079718,89.0442395 C514.452615,96.6246886 515.015028,106.449716 508.340083,113.025867 C505.339512,115.981529 501.870005,117.346464 498.115397,117.184177 C500.959396,123.314235 500.044892,129.525045 495.207524,134.290951 Z" id="Fill-14" fill="#FFFFFF"></path>
                <path d="M532.174185,178.512381 L558.77137,168.424724 C561.914396,167.231652 565.230115,168.621504 566.438186,171.723491 C567.615643,174.747232 566.096723,177.970851 562.952913,179.163148 L535.550347,189.556821 C528.134722,192.369062 525.19422,198.597054 527.951039,205.676465 C530.707859,212.755876 537.11715,215.437189 544.53199,212.624948 L571.93534,202.231275 C575.079151,201.038978 578.395655,202.428829 579.602941,205.530817 C580.779613,208.553783 579.259908,211.777402 576.116883,212.970474 L549.520483,223.058131 C535.818807,228.254967 523.048893,222.78233 517.875931,209.497394 C512.70297,196.214008 518.47251,183.709218 532.174185,178.512381" id="Fill-16" fill="#FFFFFF"></path>
                <g id="Group-20" transform="translate(533.000000, 281.000000)">
                    <mask id="mask-4" fill="white">
                        <use xlink:href="#path-3"></use>
                    </mask>
                    <g id="Clip-19"></g>
                    <path d="M8.36930031,2.17526712 C9.79688438,0.856549068 11.2930492,0.134651305 12.9405648,0.182520461 C16.0582319,0.357783341 18.0644171,2.87940697 17.9824355,5.59636764 C17.9516923,6.61474534 17.5725273,7.70801511 16.7661118,8.5341441 C14.2704016,10.7569715 10.6844932,14.6467266 10.5134354,20.3354353 C10.362873,25.3439389 12.7001379,28.3851745 16.6005719,28.4971265 C19.8948148,28.5920928 21.3405294,26.6796427 23.9221627,21.5707684 L26.877443,15.6234118 C31.3052397,6.82938446 36.3857363,2.30266084 43.7538358,2.51498372 C53.3748538,2.79216157 59.7221244,10.9623457 59.402869,21.5738567 C59.1506178,29.9787541 55.0160631,34.7872881 52.1711427,37.0850076 C50.8349997,38.2354115 49.5248701,38.5380681 48.3976226,38.5056406 C45.4510134,38.4199394 43.2769234,35.7230529 43.3557519,33.0917935 C43.386495,32.0734158 43.7656601,30.9793739 44.6635167,29.9857029 C46.8123815,27.7536104 48.8832061,25.2636422 49.0030254,21.2735164 C49.1244213,17.1992335 47.2183483,14.2552804 43.6639713,14.1533654 C40.8040735,14.0699804 39.3709714,15.5585568 36.8807792,20.4998891 L33.8285398,26.7846461 C29.3014193,36.0010028 24.4857864,40.3648169 16.6849184,40.1401407 C6.11086388,39.8351679 -0.224582387,31.2411101 0.112015294,20.0358671 C0.310663105,13.4137097 3.56391516,6.20013668 8.36930031,2.17526712" id="Fill-18" fill="#FFFFFF" mask="url(#mask-4)"></path>
                </g>
            </g>
        </g>
    </g>
</svg>